<?xml version="1.0" standalone="no"?>
<!DOCTYPE svg PUBLIC "-//W3C//DTD SVG 20010904//EN"
 "http://www.w3.org/TR/2001/REC-SVG-20010904/DTD/svg10.dtd">
<svg version="1.0" xmlns="http://www.w3.org/2000/svg"
 width="191.000000pt" height="129.000000pt" viewBox="0 0 191.000000 129.000000"
 preserveAspectRatio="xMidYMid meet">

<g transform="translate(0.000000,129.000000) scale(0.100000,-0.100000)"
fill="#000000" stroke="none">
<path d="M865 1280 c-78 -14 -172 -47 -232 -81 -87 -50 -279 -215 -531 -455
l-104 -99 119 -116 c273 -266 452 -416 560 -466 183 -84 390 -82 562 6 64 33
228 161 375 294 l59 53 -254 223 c-276 241 -336 281 -436 289 -53 4 -173 -22
-173 -38 0 -3 48 -49 107 -101 59 -52 137 -121 174 -154 36 -33 100 -89 142
-125 42 -36 76 -70 76 -77 1 -18 -128 -124 -183 -149 -160 -74 -307 -47 -464
84 -114 96 -292 265 -292 278 0 13 178 180 295 279 125 104 240 139 367 111
40 -9 96 -29 123 -45 28 -16 169 -135 315 -265 146 -130 269 -236 275 -236 5
0 44 34 85 76 l75 75 -110 105 c-147 141 -375 345 -444 398 -31 24 -79 55
-108 69 -109 56 -276 85 -378 67z"/>
</g>
</svg>
